<?xml version="1.0" encoding="UTF-8"?>
<svg id="_Слой_2" data-name="Слой 2" xmlns="http://www.w3.org/2000/svg" viewBox="0 0 648.49 210.95">
  <defs>
    <style>
      .cls-1 {
        fill: #fff;
        stroke-width: 0px;
      }
    </style>
  </defs>
  <g id="logo">
    <g>
      <polygon class="cls-1" points="1.25 86.15 18.5 86.15 18.5 131.08 22.92 131.08 22.92 86.15 40.24 86.15 40.24 82.15 1.25 82.15 1.25 86.15"/>
      <path class="cls-1" d="m95.18,96.09c0-7.87-5.8-13.94-14.56-13.94h-17.05v48.94h4.42v-21.19h10.21l11.8,21.19h5.11l-12.15-21.47c7.45-.97,12.22-6.42,12.22-13.53Zm-15.25,9.87h-11.94v-19.88h11.94c6.49,0,10.84,4,10.84,10.01s-4.35,9.87-10.84,9.87Z"/>
      <path class="cls-1" d="m149.49,114.59c0,8.63-4.35,13.39-12.35,13.39s-12.35-4.76-12.35-13.39v-32.44h-4.42v32.65c0,11.18,6.83,17.19,16.77,17.19s16.77-6.07,16.77-17.19v-32.65h-4.42v32.44Z"/>
      <polygon class="cls-1" points="186.76 82.15 182.34 82.15 182.34 131.08 211.47 131.08 211.47 127.08 186.76 127.08 186.76 82.15"/>
      <polygon class="cls-1" points="242.31 106.1 228.23 82.15 223.06 82.15 240.17 110.17 240.17 131.08 244.45 131.08 244.45 110.17 261.57 82.15 256.46 82.15 242.31 106.1"/>
      <path class="cls-1" d="m445.08,131.08h3.04c-1.27,7.94-8.17,14.02-16.46,14.02s-15.19-6.08-16.46-14.02h3.11v-48.94h-8.28v34.72l-22.22-34.72h-4.94c-1.21-9.09-9.01-16.13-18.43-16.13s-17.22,7.04-18.43,16.13h-3.27v31.4c0,6.9-3.73,10.7-10.01,10.7s-10.01-3.8-10.01-10.7v-31.4h-8.21v31.89c0,11.8,8.01,18.08,18.22,18.08s18.29-6.28,18.29-18.08v-31.89h-3.08c1.2-8.03,8.13-14.21,16.49-14.21s15.29,6.18,16.49,14.21h-3.68v48.94h8.28v-37.06l24.16,37.06h3.57c1.29,9,9.05,15.94,18.4,15.94s17.11-6.94,18.4-15.94h3.44v-48.94h-8.42v48.94Z"/>
      <path class="cls-1" d="m502.15,81.11c-12.84,0-24.85,9.46-24.85,25.47s12.01,25.54,24.85,25.54c4.49,0,8.97-1.17,12.77-3.38l6,6.56,5.59-4.76-5.8-6.49c3.87-4.28,6.35-10.21,6.35-17.46,0-16.01-12.08-25.47-24.92-25.47Zm13.04,36.79l-8.14-9.04-5.66,4.83,8.08,8.97c-2.28,1.1-4.83,1.59-7.32,1.59-8.21,0-16.36-5.87-16.36-17.67s8.14-17.67,16.36-17.67,16.43,5.87,16.43,17.67c0,4.76-1.31,8.49-3.38,11.32Z"/>
      <path class="cls-1" d="m578.55,113.55c0,6.9-3.73,10.7-10.01,10.7s-10.01-3.8-10.01-10.7v-31.4h-8.21v31.89c0,11.8,8.01,18.08,18.22,18.08s18.29-6.28,18.29-18.08v-31.89h-8.28v31.4Z"/>
      <polygon class="cls-1" points="643.29 89.88 643.29 82.15 613.05 82.15 613.05 131.08 643.29 131.08 643.29 123.35 621.34 123.35 621.34 110.38 641.22 110.38 641.22 102.85 621.34 102.85 621.34 89.88 643.29 89.88"/>
    </g>
    <g>
      <path class="cls-1" d="m13.52,50.03L0,.67h4.58l11.18,42.44h.39L27.33.67h5.21l11.18,42.44h.39L55.28.67h4.6l-13.52,49.35h-4.82L30.1,8.17h-.31l-11.45,41.86h-4.82Z"/>
      <path class="cls-1" d="m71.65,50.03V.67h28.63v4.05h-24.12v18.58h22.6v4.05h-22.6v18.63h24.6v4.05h-29.11Z"/>
      <path class="cls-1" d="m115.52,50.03V.67h4.51v45.31h23.52v4.05h-28.03Z"/>
      <path class="cls-1" d="m195.94,16.1h-4.53c-.34-1.69-.94-3.25-1.82-4.69-.88-1.44-1.97-2.69-3.29-3.77s-2.81-1.91-4.48-2.51-3.48-.89-5.42-.89c-3.12,0-5.96.81-8.52,2.43-2.56,1.62-4.61,4-6.15,7.15-1.53,3.14-2.3,6.98-2.3,11.53s.77,8.43,2.3,11.57,3.58,5.51,6.15,7.12c2.56,1.61,5.4,2.42,8.52,2.42,1.94,0,3.75-.3,5.42-.89s3.17-1.43,4.48-2.49c1.32-1.07,2.41-2.33,3.29-3.77.88-1.45,1.48-3.01,1.82-4.7h4.53c-.4,2.27-1.15,4.37-2.25,6.33s-2.5,3.66-4.19,5.12c-1.7,1.46-3.64,2.6-5.84,3.42s-4.62,1.23-7.25,1.23c-4.15,0-7.82-1.04-11.04-3.12-3.21-2.08-5.73-5.02-7.56-8.81s-2.73-8.27-2.73-13.42.91-9.63,2.73-13.42,4.34-6.73,7.56-8.81c3.21-2.08,6.89-3.12,11.04-3.12,2.63,0,5.05.41,7.25,1.22,2.2.81,4.15,1.95,5.84,3.42,1.69,1.47,3.09,3.18,4.19,5.12s1.85,4.06,2.25,6.34Z"/>
      <path class="cls-1" d="m250.6,25.35c0,5.14-.92,9.61-2.75,13.41-1.83,3.8-4.35,6.74-7.55,8.82s-6.89,3.12-11.05,3.12-7.84-1.04-11.05-3.12-5.72-5.02-7.54-8.82c-1.82-3.8-2.73-8.27-2.73-13.41s.91-9.61,2.73-13.41c1.82-3.8,4.34-6.74,7.56-8.82,3.21-2.08,6.89-3.12,11.04-3.12s7.84,1.04,11.05,3.12,5.72,5.02,7.55,8.82c1.83,3.8,2.75,8.27,2.75,13.41Zm-4.39,0c0-4.42-.74-8.21-2.22-11.36-1.48-3.16-3.49-5.57-6.05-7.24-2.55-1.67-5.45-2.51-8.7-2.51s-6.12.84-8.68,2.51c-2.55,1.67-4.57,4.08-6.06,7.23-1.49,3.15-2.23,6.94-2.23,11.37s.74,8.2,2.22,11.35c1.48,3.15,3.49,5.56,6.05,7.24,2.55,1.68,5.45,2.52,8.7,2.52s6.15-.84,8.71-2.51,4.58-4.08,6.06-7.24c1.48-3.16,2.21-6.94,2.19-11.36Z"/>
      <path class="cls-1" d="m265.09.67h5.21l17.91,42.99h.43L306.54.67h5.21v49.35h-4.24V10.19h-.39l-16.65,39.83h-4.1l-16.65-39.83h-.39v39.83h-4.24V.67Z"/>
      <path class="cls-1" d="m328.45,50.03V.67h28.63v4.05h-24.12v18.58h22.6v4.05h-22.6v18.63h24.6v4.05h-29.11Z"/>
      <path class="cls-1" d="m392.01,4.72V.67h35.79v4.05h-15.64v45.31h-4.51V4.72h-15.64Z"/>
      <path class="cls-1" d="m481.97,25.35c0,5.14-.92,9.61-2.75,13.41-1.83,3.8-4.35,6.74-7.55,8.82s-6.89,3.12-11.05,3.12-7.84-1.04-11.05-3.12-5.72-5.02-7.54-8.82c-1.82-3.8-2.73-8.27-2.73-13.41s.91-9.61,2.73-13.41c1.82-3.8,4.34-6.74,7.56-8.82,3.21-2.08,6.89-3.12,11.04-3.12s7.84,1.04,11.05,3.12,5.72,5.02,7.55,8.82c1.83,3.8,2.75,8.27,2.75,13.41Zm-4.39,0c0-4.42-.74-8.21-2.22-11.36-1.48-3.16-3.49-5.57-6.05-7.24-2.55-1.67-5.45-2.51-8.7-2.51s-6.12.84-8.68,2.51c-2.55,1.67-4.58,4.08-6.06,7.23-1.49,3.15-2.23,6.94-2.23,11.37s.74,8.2,2.22,11.35c1.48,3.15,3.5,5.56,6.05,7.24,2.55,1.68,5.45,2.52,8.7,2.52s6.15-.84,8.71-2.51,4.58-4.08,6.06-7.24c1.48-3.16,2.21-6.94,2.19-11.36Z"/>
      <path class="cls-1" d="m516.16,4.72V.67h35.79v4.05h-15.64v45.31h-4.51V4.72h-15.64Z"/>
      <path class="cls-1" d="m565.66,50.03V.67h4.51v22.63h28V.67h4.51v49.35h-4.51v-22.68h-28v22.68h-4.51Z"/>
      <path class="cls-1" d="m619.38,50.03V.67h28.63v4.05h-24.12v18.58h22.6v4.05h-22.6v18.63h24.61v4.05h-29.11Z"/>
    </g>
    <g>
      <path class="cls-1" d="m39.45,160.75h4.51v32.68c0,3.36-.79,6.36-2.36,9-1.57,2.64-3.76,4.72-6.57,6.24-2.8,1.52-6.06,2.28-9.77,2.28s-6.95-.76-9.76-2.29c-2.81-1.53-5-3.61-6.58-6.24-1.57-2.63-2.36-5.63-2.36-8.99v-32.68h4.51v32.36c0,2.62.59,4.95,1.76,7s2.82,3.66,4.95,4.83c2.13,1.17,4.62,1.76,7.48,1.76s5.36-.59,7.49-1.76c2.14-1.17,3.79-2.78,4.95-4.83,1.16-2.05,1.75-4.38,1.75-7v-32.36Z"/>
      <path class="cls-1" d="m99.1,160.75v49.35h-4.39l-29.16-41.33h-.39v41.33h-4.51v-49.35h4.36l29.26,41.38h.39v-41.38h4.43Z"/>
      <path class="cls-1" d="m120.31,160.75v49.35h-4.51v-49.35h4.51Z"/>
      <path class="cls-1" d="m137.09,160.75l15.42,43.5h.43l15.42-43.5h4.72l-17.95,49.35h-4.82l-17.95-49.35h4.72Z"/>
      <path class="cls-1" d="m185.15,210.11v-49.35h28.63v4.05h-24.12v18.58h22.6v4.05h-22.6v18.63h24.6v4.05h-29.11Z"/>
      <path class="cls-1" d="m229.01,210.11v-49.35h15.93c3.5,0,6.43.63,8.78,1.89,2.35,1.26,4.13,3,5.33,5.23,1.2,2.23,1.8,4.78,1.8,7.65s-.6,5.41-1.8,7.62c-1.2,2.2-2.97,3.92-5.31,5.16-2.35,1.24-5.25,1.86-8.72,1.86h-13.57v-4.12h13.45c2.57,0,4.71-.43,6.42-1.28s2.99-2.06,3.83-3.64c.84-1.57,1.27-3.44,1.27-5.59s-.43-4.04-1.28-5.65c-.85-1.61-2.13-2.86-3.84-3.75-1.71-.88-3.87-1.33-6.47-1.33h-11.3v45.31h-4.51Zm21.76-22.27l12.15,22.27h-5.21l-12.03-22.27h5.08Z"/>
      <path class="cls-1" d="m302.23,173.09c-.27-2.75-1.49-4.93-3.64-6.55-2.15-1.62-4.86-2.43-8.12-2.43-2.3,0-4.32.39-6.06,1.18-1.74.79-3.11,1.88-4.1,3.27-.99,1.39-1.48,2.97-1.48,4.74,0,1.3.28,2.44.84,3.42.56.98,1.32,1.82,2.28,2.52.96.7,2.02,1.3,3.18,1.8,1.16.5,2.34.92,3.53,1.25l5.21,1.49c1.57.43,3.15.99,4.72,1.66s3.02,1.52,4.33,2.54c1.31,1.02,2.36,2.27,3.16,3.74.79,1.47,1.19,3.23,1.19,5.29,0,2.63-.68,5-2.05,7.11-1.37,2.1-3.33,3.77-5.88,5-2.55,1.23-5.61,1.84-9.18,1.84-3.36,0-6.27-.56-8.75-1.67-2.47-1.12-4.42-2.66-5.83-4.64s-2.21-4.27-2.39-6.87h4.63c.16,1.94.8,3.59,1.93,4.94,1.12,1.35,2.59,2.37,4.39,3.07s3.81,1.05,6.02,1.05c2.46,0,4.65-.41,6.57-1.24,1.92-.83,3.43-1.98,4.53-3.47,1.1-1.49,1.65-3.22,1.65-5.19,0-1.67-.43-3.07-1.3-4.21-.87-1.13-2.08-2.08-3.63-2.86-1.55-.77-3.35-1.45-5.39-2.05l-5.9-1.74c-3.87-1.16-6.88-2.75-9.01-4.8-2.14-2.04-3.21-4.64-3.21-7.81,0-2.65.71-4.98,2.13-7s3.35-3.59,5.78-4.72c2.43-1.13,5.17-1.7,8.21-1.7s5.78.56,8.15,1.69c2.36,1.12,4.24,2.67,5.63,4.64,1.39,1.97,2.13,4.21,2.23,6.71h-4.36Z"/>
      <path class="cls-1" d="m321.73,210.11v-49.35h28.63v4.05h-24.12v18.58h22.6v4.05h-22.6v18.63h24.6v4.05h-29.11Z"/>
    </g>
  </g>
</svg>